<svg xmlns="http://www.w3.org/2000/svg" xmlns:xlink="http://www.w3.org/1999/xlink" contentStyleType="text/css" height="772px" preserveAspectRatio="none" style="width:384px;height:772px;background:#FFFFFF;" version="1.1" viewBox="0 0 384 772" width="384px" zoomAndPan="magnify"><defs/><g><!--entity Internet--><g id="elem_Internet"><rect fill="#ADD8E6" height="57.2422" rx="2.5" ry="2.5" style="stroke:#181818;stroke-width:0.5;" width="83.0479" x="94.5" y="7"/><text fill="#000000" font-family="sans-serif" font-size="14" font-style="italic" lengthAdjust="spacing" textLength="63.0479" x="104.5" y="32.1074">&#171;Internet&#187;</text><text fill="#000000" font-family="sans-serif" font-size="14" lengthAdjust="spacing" textLength="42" x="115.0239" y="50.7285">&#20114;&#32852;&#32593;</text></g><!--entity Firewall--><g id="elem_Firewall"><rect fill="#FF0000" height="57.2422" rx="2.5" ry="2.5" style="stroke:#181818;stroke-width:0.5;" width="90" x="91" y="124"/><text fill="#000000" font-family="sans-serif" font-size="14" font-style="italic" lengthAdjust="spacing" textLength="63.7998" x="104.1001" y="149.1074">&#171;Firewall&#187;</text><text fill="#000000" font-family="sans-serif" font-size="14" lengthAdjust="spacing" textLength="70" x="101" y="167.7285">&#38450;&#28779;&#22681;&#38598;&#32676;</text></g><!--entity LoadBalancer--><g id="elem_LoadBalancer"><rect fill="#FFA500" height="57.2422" rx="2.5" ry="2.5" style="stroke:#181818;stroke-width:0.5;" width="121.9717" x="75" y="241"/><text fill="#000000" font-family="sans-serif" font-size="14" font-style="italic" lengthAdjust="spacing" textLength="101.9717" x="85" y="266.1074">&#171;LoadBalancer&#187;</text><text fill="#000000" font-family="sans-serif" font-size="14" lengthAdjust="spacing" textLength="98" x="86.9858" y="284.7285">&#36127;&#36733;&#22343;&#34913;&#22120;&#38598;&#32676;</text></g><!--entity WebServer1--><g id="elem_WebServer1"><rect fill="#90EE90" height="57.2422" rx="2.5" ry="2.5" style="stroke:#181818;stroke-width:0.5;" width="105.5928" x="13" y="358"/><text fill="#000000" font-family="sans-serif" font-size="14" font-style="italic" lengthAdjust="spacing" textLength="85.5928" x="23" y="383.1074">&#171;WebServer&#187;</text><text fill="#000000" font-family="sans-serif" font-size="14" lengthAdjust="spacing" textLength="78.5723" x="26.5103" y="401.7285">Web&#26381;&#21153;&#22120;1</text></g><!--entity WebServer2--><g id="elem_WebServer2"><rect fill="#90EE90" height="57.2422" rx="2.5" ry="2.5" style="stroke:#181818;stroke-width:0.5;" width="105.5928" x="154" y="358"/><text fill="#000000" font-family="sans-serif" font-size="14" font-style="italic" lengthAdjust="spacing" textLength="85.5928" x="164" y="383.1074">&#171;WebServer&#187;</text><text fill="#000000" font-family="sans-serif" font-size="14" lengthAdjust="spacing" textLength="78.5723" x="167.5103" y="401.7285">Web&#26381;&#21153;&#22120;2</text></g><!--entity AppServer1--><g id="elem_AppServer1"><rect fill="#FFFF00" height="57.2422" rx="2.5" ry="2.5" style="stroke:#181818;stroke-width:0.5;" width="101.7168" x="17" y="475"/><text fill="#000000" font-family="sans-serif" font-size="14" font-style="italic" lengthAdjust="spacing" textLength="81.7168" x="27" y="500.1074">&#171;AppServer&#187;</text><text fill="#000000" font-family="sans-serif" font-size="14" lengthAdjust="spacing" textLength="77.7861" x="28.9653" y="518.7285">&#24212;&#29992;&#26381;&#21153;&#22120;1</text></g><!--entity AppServer2--><g id="elem_AppServer2"><rect fill="#FFFF00" height="57.2422" rx="2.5" ry="2.5" style="stroke:#181818;stroke-width:0.5;" width="101.7168" x="155" y="475"/><text fill="#000000" font-family="sans-serif" font-size="14" font-style="italic" lengthAdjust="spacing" textLength="81.7168" x="165" y="500.1074">&#171;AppServer&#187;</text><text fill="#000000" font-family="sans-serif" font-size="14" lengthAdjust="spacing" textLength="77.7861" x="166.9653" y="518.7285">&#24212;&#29992;&#26381;&#21153;&#22120;2</text></g><!--entity DBServer1--><g id="elem_DBServer1"><rect fill="#FFC0CB" height="57.2422" rx="2.5" ry="2.5" style="stroke:#181818;stroke-width:0.5;" width="111.7861" x="7" y="592"/><text fill="#000000" font-family="sans-serif" font-size="14" font-style="italic" lengthAdjust="spacing" textLength="76.2549" x="24.7656" y="617.1074">&#171;DBServer&#187;</text><text fill="#000000" font-family="sans-serif" font-size="14" lengthAdjust="spacing" textLength="91.7861" x="17" y="635.7285">&#25968;&#25454;&#24211;&#26381;&#21153;&#22120;1</text></g><!--entity DBServer2--><g id="elem_DBServer2"><rect fill="#FFC0CB" height="57.2422" rx="2.5" ry="2.5" style="stroke:#181818;stroke-width:0.5;" width="111.7861" x="154" y="592"/><text fill="#000000" font-family="sans-serif" font-size="14" font-style="italic" lengthAdjust="spacing" textLength="76.2549" x="171.7656" y="617.1074">&#171;DBServer&#187;</text><text fill="#000000" font-family="sans-serif" font-size="14" lengthAdjust="spacing" textLength="91.7861" x="164" y="635.7285">&#25968;&#25454;&#24211;&#26381;&#21153;&#22120;2</text></g><!--entity CacheServer--><g id="elem_CacheServer"><rect fill="#D3D3D3" height="57.2422" rx="2.5" ry="2.5" style="stroke:#181818;stroke-width:0.5;" width="118" x="77" y="709"/><text fill="#000000" font-family="sans-serif" font-size="14" font-style="italic" lengthAdjust="spacing" textLength="97.2754" x="87.3623" y="734.1074">&#171;CacheServer&#187;</text><text fill="#000000" font-family="sans-serif" font-size="14" lengthAdjust="spacing" textLength="98" x="87" y="752.7285">&#32531;&#23384;&#26381;&#21153;&#22120;&#38598;&#32676;</text></g><g id="elem_N1"><path d="M213,13 L213,57.582 L377,57.582 L377,23 L367,13 L213,13 " fill="#FEFFDD" style="stroke:#181818;stroke-width:0.5;"/><path d="M367,13 L367,23 L377,23 L367,13 " fill="#FEFFDD" style="stroke:#181818;stroke-width:1.0;"/><text fill="#000000" font-family="sans-serif" font-size="13" lengthAdjust="spacing" textLength="91" x="219" y="32.0283">&#39640;&#21487;&#29992;&#26550;&#26500;&#35774;&#35745;</text><text fill="#000000" font-family="sans-serif" font-size="13" lengthAdjust="spacing" textLength="143" x="219" y="49.3193">&#25903;&#25345;&#36127;&#36733;&#22343;&#34913;&#21644;&#25925;&#38556;&#36716;&#31227;</text></g><!--link Internet to Firewall--><g id="link_Internet_Firewall"><path d="M136,64.05 C136,82.12 136,99.67 136,117.78 " fill="none" id="Internet-to-Firewall" style="stroke:#181818;stroke-width:1.0;"/><polygon fill="#181818" points="136,123.78,140,114.78,136,118.78,132,114.78,136,123.78" style="stroke:#181818;stroke-width:1.0;"/></g><!--link Firewall to LoadBalancer--><g id="link_Firewall_LoadBalancer"><path d="M136,181.05 C136,199.12 136,216.67 136,234.78 " fill="none" id="Firewall-to-LoadBalancer" style="stroke:#181818;stroke-width:1.0;"/><polygon fill="#181818" points="136,240.78,140,231.78,136,235.78,132,231.78,136,240.78" style="stroke:#181818;stroke-width:1.0;"/></g><!--link LoadBalancer to WebServer1--><g id="link_LoadBalancer_WebServer1"><path d="M119.23,298.05 C108.23,316.12 97.021,334.5456 85.991,352.6556 " fill="none" id="LoadBalancer-to-WebServer1" style="stroke:#181818;stroke-width:1.0;"/><polygon fill="#181818" points="82.87,357.78,90.9678,352.1741,85.4709,353.5097,84.1353,348.0128,82.87,357.78" style="stroke:#181818;stroke-width:1.0;"/></g><!--link LoadBalancer to WebServer2--><g id="link_LoadBalancer_WebServer2"><path d="M153.01,298.05 C164.17,316.12 175.5582,334.5645 186.7382,352.6745 " fill="none" id="LoadBalancer-to-WebServer2" style="stroke:#181818;stroke-width:1.0;"/><polygon fill="#181818" points="189.89,357.78,188.5659,348.0206,187.2635,353.5254,181.7586,352.223,189.89,357.78" style="stroke:#181818;stroke-width:1.0;"/></g><!--link WebServer1 to AppServer1--><g id="link_WebServer1_AppServer1"><path d="M66.48,415.05 C66.79,433.12 67.094,450.6709 67.414,468.7809 " fill="none" id="WebServer1-to-AppServer1" style="stroke:#181818;stroke-width:1.0;"/><polygon fill="#181818" points="67.52,474.78,71.3604,465.7107,67.4317,469.7808,63.3616,465.8521,67.52,474.78" style="stroke:#181818;stroke-width:1.0;"/></g><!--link WebServer1 to AppServer2--><g id="link_WebServer1_AppServer2"><path d="M99.53,415.05 C121.54,433.12 145.5742,452.8608 167.6142,470.9708 " fill="none" id="WebServer1-to-AppServer2" style="stroke:#181818;stroke-width:1.0;"/><polygon fill="#181818" points="172.25,474.78,167.8358,465.9758,168.3869,471.6057,162.7569,472.1568,172.25,474.78" style="stroke:#181818;stroke-width:1.0;"/></g><!--link WebServer2 to AppServer1--><g id="link_WebServer2_AppServer1"><path d="M173.71,415.05 C151.86,433.12 128.013,452.8453 106.123,470.9553 " fill="none" id="WebServer2-to-AppServer1" style="stroke:#181818;stroke-width:1.0;"/><polygon fill="#181818" points="101.5,474.78,110.9842,472.125,105.3525,471.5928,105.8847,465.961,101.5,474.78" style="stroke:#181818;stroke-width:1.0;"/></g><!--link WebServer2 to AppServer2--><g id="link_WebServer2_AppServer2"><path d="M206.76,415.05 C206.6,433.12 206.453,450.6702 206.293,468.7802 " fill="none" id="WebServer2-to-AppServer2" style="stroke:#181818;stroke-width:1.0;"/><polygon fill="#181818" points="206.24,474.78,210.3194,465.8157,206.2842,469.7802,202.3197,465.745,206.24,474.78" style="stroke:#181818;stroke-width:1.0;"/></g><!--link AppServer1 to DBServer1--><g id="link_AppServer1_DBServer1"><path d="M66.8,532.05 C66.02,550.12 65.2482,567.6756 64.4682,585.7856 " fill="none" id="AppServer1-to-DBServer1" style="stroke:#181818;stroke-width:1.0;"/><polygon fill="#181818" points="64.21,591.78,68.5936,582.9605,64.4252,586.7846,60.601,582.6162,64.21,591.78" style="stroke:#181818;stroke-width:1.0;"/></g><!--link AppServer1 to DBServer2--><g id="link_AppServer1_DBServer2"><path d="M102.01,532.05 C124.33,550.12 148.7475,569.8937 171.1075,588.0037 " fill="none" id="AppServer1-to-DBServer2" style="stroke:#181818;stroke-width:1.0;"/><polygon fill="#181818" points="175.77,591.78,171.2937,583.0071,171.8845,588.6331,166.2586,589.2239,175.77,591.78" style="stroke:#181818;stroke-width:1.0;"/></g><!--link AppServer2 to DBServer1--><g id="link_AppServer2_DBServer1"><path d="M171.75,532.05 C149.27,550.12 124.6657,569.9099 102.1457,588.0199 " fill="none" id="AppServer2-to-DBServer1" style="stroke:#181818;stroke-width:1.0;"/><polygon fill="#181818" points="97.47,591.78,106.9902,589.257,101.3664,588.6466,101.9768,583.0228,97.47,591.78" style="stroke:#181818;stroke-width:1.0;"/></g><!--link AppServer2 to DBServer2--><g id="link_AppServer2_DBServer2"><path d="M206.96,532.05 C207.59,550.12 208.2014,567.6736 208.8314,585.7836 " fill="none" id="AppServer2-to-DBServer2" style="stroke:#181818;stroke-width:1.0;"/><polygon fill="#181818" points="209.04,591.78,212.7247,582.6464,208.8662,586.783,204.7295,582.9245,209.04,591.78" style="stroke:#181818;stroke-width:1.0;"/></g><!--link DBServer1 to CacheServer--><g id="link_DBServer1_CacheServer"><path d="M80.49,649.05 C91.96,667.12 103.6956,685.6037 115.1856,703.7137 " fill="none" id="DBServer1-to-CacheServer" style="stroke:#181818;stroke-width:1.0;"/><polygon fill="#181818" points="118.4,708.78,116.956,699.0376,115.7214,704.558,110.2009,703.3234,118.4,708.78" style="stroke:#181818;stroke-width:1.0;"/></g><!--link DBServer2 to CacheServer--><g id="link_DBServer2_CacheServer"><path d="M192.28,649.05 C180.64,667.12 168.7361,685.6239 157.0861,703.7339 " fill="none" id="DBServer2-to-CacheServer" style="stroke:#181818;stroke-width:1.0;"/><polygon fill="#181818" points="153.84,708.78,162.0732,703.375,156.5451,704.5749,155.3451,699.0468,153.84,708.78" style="stroke:#181818;stroke-width:1.0;"/></g><!--SRC=[XPDTQnD158RlpwyOUz-Bp7K9DB4M8LIfWWZUZBlJTCau6oPRWuWN0Jz0MiGsXLHh9L9eePgAb5x4fh-c-v5_uUx2pfvPjklUdlVP0-zpvexDDnp9oVfAy_7oscfhXLY2zNe0lOuZkqon5qHnosEoBJXv3IJ-6ipgj9Mx9UscArorj7HVUbn9xjNhfEMqDxs6sEBboNkEudqcH9nSvtPvfkKoky44anPNSUw1YdVVyhid_FaZhbwckNJpgk9SbcUNkrsTVSg5SFlbkRiD7Nleo4vvgCciJLvSpLx16u2yhOMRwMuq68Qppmk4zKZM4i656Vdvw4yuEFD_7Co_lW-lZrCgQupWyZ0KNNoFPZF_suTeFFOFJX6AYoJ5Net5SO_1uOx_CVb1BMLripLYr7mRHKsA5YYC-TDXE3mjxDDsadr8LGL8JP0MG4m6-x-3dOa_tIjipLmdItFlrIGrI6gI60slzlnV8yqXCUXwIE6M0FIPBDfkNoxMzGM0FeLiWeq26BgpIExnFtCAW9ndurnBvPG2Cb_5qZ8MaFnihCrK3IaW-nKaBI4XTvyDaGZ8_PPDGRfUybxFHlwdy-GcZow3exVHv3gQZ9_9O7WUR0-CTxcx7Uo_ctyvZ6O_mvE_wH6irVu1]--></g></svg>