<svg xmlns="http://www.w3.org/2000/svg" xmlns:xlink="http://www.w3.org/1999/xlink" contentStyleType="text/css" height="244px" preserveAspectRatio="none" style="width:159px;height:244px;background:#FFFFFF;" version="1.1" viewBox="0 0 159 244" width="159px" zoomAndPan="magnify"><defs/><g><text fill="#000000" font-family="sans-serif" font-size="10" lengthAdjust="spacing" textLength="11.123" x="13" y="26.791">10</text><text fill="#000000" font-family="sans-serif" font-size="10" lengthAdjust="spacing" textLength="11.123" x="41" y="26.791">11</text><line style="stroke:#C0C0C0;stroke-width:1.0;" x1="8" x2="8" y1="16" y2="226.6777"/><line style="stroke:#C0C0C0;stroke-width:1.0;" x1="36" x2="36" y1="16" y2="226.6777"/><line style="stroke:#C0C0C0;stroke-width:1.0;" x1="60" x2="60" y1="16" y2="226.6777"/><line style="stroke:#C0C0C0;stroke-width:1.0;" x1="0" x2="0" y1="0" y2="16"/><line style="stroke:#C0C0C0;stroke-width:1.0;" x1="60" x2="60" y1="0" y2="16"/><text fill="#000000" font-family="sans-serif" font-size="12" font-weight="bold" lengthAdjust="spacing" textLength="51.3691" x="4.3154" y="12.9492">Mar 2025</text><line style="stroke:#C0C0C0;stroke-width:1.0;" x1="0" x2="60" y1="0" y2="0"/><line style="stroke:#C0C0C0;stroke-width:1.0;" x1="0" x2="60" y1="16" y2="16"/><line style="stroke:#C0C0C0;stroke-width:1.0;" x1="0" x2="60" y1="27" y2="27"/><line style="stroke:#181818;stroke-width:1.5;" x1="-1" x2="-1" y1="78.2617" y2="89.5771"/><line style="stroke:#181818;stroke-width:1.5;" x1="-1" x2="7" y1="89.5771" y2="89.5771"/><polygon fill="#181818" points="3,85.5771,3,89.5771,3,93.5771,7,89.5771" style="stroke:#181818;stroke-width:1.5;"/><line style="stroke:#181818;stroke-width:1.5;" x1="7" x2="7" y1="96.8926" y2="108.208"/><line style="stroke:#181818;stroke-width:1.5;" x1="7" x2="15" y1="108.208" y2="108.208"/><polygon fill="#181818" points="11,104.208,11,108.208,11,112.208,15,108.208" style="stroke:#181818;stroke-width:1.5;"/><line style="stroke:#181818;stroke-width:1.5;" x1="11" x2="11" y1="115.5234" y2="161.4697"/><line style="stroke:#181818;stroke-width:1.5;" x1="11" x2="19" y1="161.4697" y2="161.4697"/><polygon fill="#181818" points="15,157.4697,15,161.4697,15,165.4697,19,161.4697" style="stroke:#181818;stroke-width:1.5;"/><line style="stroke:#181818;stroke-width:1.5;" x1="23" x2="23" y1="168.7852" y2="180.1006"/><line style="stroke:#181818;stroke-width:1.5;" x1="23" x2="31" y1="180.1006" y2="180.1006"/><polygon fill="#181818" points="27,176.1006,27,180.1006,27,184.1006,31,180.1006" style="stroke:#181818;stroke-width:1.5;"/><line style="stroke:#181818;stroke-width:1.5;" x1="35" x2="35" y1="187.416" y2="198.7314"/><line style="stroke:#181818;stroke-width:1.5;" x1="35" x2="43" y1="198.7314" y2="198.7314"/><polygon fill="#181818" points="39,194.7314,39,198.7314,39,202.7314,43,198.7314" style="stroke:#181818;stroke-width:1.5;"/><line style="stroke:#181818;stroke-width:1.5;" x1="47" x2="47" y1="206.0469" y2="217.3623"/><line style="stroke:#181818;stroke-width:1.5;" x1="47" x2="55" y1="217.3623" y2="217.3623"/><polygon fill="#181818" points="51,213.3623,51,217.3623,51,221.3623,55,217.3623" style="stroke:#181818;stroke-width:1.5;"/><line style="stroke:#181818;stroke-width:1.0;" x1="0" x2="5" y1="44.3154" y2="44.3154"/><line style="stroke:#181818;stroke-width:1.0;" x1="59" x2="59" y1="44.3154" y2="44.3154"/><rect fill="#E2E2F0" height="14.6309" style="stroke:none;stroke-width:1.0;" width="4" x="2" y="63.6309"/><line style="stroke:#181818;stroke-width:1.0;" x1="2" x2="6" y1="63.6309" y2="63.6309"/><line style="stroke:#181818;stroke-width:1.0;" x1="2" x2="6" y1="78.2617" y2="78.2617"/><line style="stroke:#181818;stroke-width:1.0;" x1="2" x2="2" y1="63.6309" y2="78.2617"/><line style="stroke:#181818;stroke-width:1.0;" x1="6" x2="6" y1="63.6309" y2="78.2617"/><rect fill="#E2E2F0" height="14.6309" style="stroke:none;stroke-width:1.0;" width="4" x="10" y="82.2617"/><line style="stroke:#181818;stroke-width:1.0;" x1="10" x2="14" y1="82.2617" y2="82.2617"/><line style="stroke:#181818;stroke-width:1.0;" x1="10" x2="14" y1="96.8926" y2="96.8926"/><line style="stroke:#181818;stroke-width:1.0;" x1="10" x2="10" y1="82.2617" y2="96.8926"/><line style="stroke:#181818;stroke-width:1.0;" x1="14" x2="14" y1="82.2617" y2="96.8926"/><rect fill="#E2E2F0" height="14.6309" style="stroke:none;stroke-width:1.0;" width="1" x="18" y="100.8926"/><line style="stroke:#181818;stroke-width:1.0;" x1="18" x2="19" y1="100.8926" y2="100.8926"/><line style="stroke:#181818;stroke-width:1.0;" x1="18" x2="19" y1="115.5234" y2="115.5234"/><line style="stroke:#181818;stroke-width:1.0;" x1="18" x2="18" y1="100.8926" y2="115.5234"/><line style="stroke:#181818;stroke-width:1.0;" x1="19" x2="19" y1="100.8926" y2="115.5234"/><line style="stroke:#181818;stroke-width:1.0;" x1="0" x2="5" y1="134.8389" y2="134.8389"/><line style="stroke:#181818;stroke-width:1.0;" x1="59" x2="59" y1="134.8389" y2="134.8389"/><rect fill="#E2E2F0" height="14.6309" style="stroke:none;stroke-width:1.0;" width="8" x="22" y="154.1543"/><line style="stroke:#181818;stroke-width:1.0;" x1="22" x2="30" y1="154.1543" y2="154.1543"/><line style="stroke:#181818;stroke-width:1.0;" x1="22" x2="30" y1="168.7852" y2="168.7852"/><line style="stroke:#181818;stroke-width:1.0;" x1="22" x2="22" y1="154.1543" y2="168.7852"/><line style="stroke:#181818;stroke-width:1.0;" x1="30" x2="30" y1="154.1543" y2="168.7852"/><rect fill="#E2E2F0" height="14.6309" style="stroke:none;stroke-width:1.0;" width="8" x="34" y="172.7852"/><line style="stroke:#181818;stroke-width:1.0;" x1="34" x2="42" y1="172.7852" y2="172.7852"/><line style="stroke:#181818;stroke-width:1.0;" x1="34" x2="42" y1="187.416" y2="187.416"/><line style="stroke:#181818;stroke-width:1.0;" x1="34" x2="34" y1="172.7852" y2="187.416"/><line style="stroke:#181818;stroke-width:1.0;" x1="42" x2="42" y1="172.7852" y2="187.416"/><rect fill="#E2E2F0" height="14.6309" style="stroke:none;stroke-width:1.0;" width="8" x="46" y="191.416"/><line style="stroke:#181818;stroke-width:1.0;" x1="46" x2="54" y1="191.416" y2="191.416"/><line style="stroke:#181818;stroke-width:1.0;" x1="46" x2="54" y1="206.0469" y2="206.0469"/><line style="stroke:#181818;stroke-width:1.0;" x1="46" x2="46" y1="191.416" y2="206.0469"/><line style="stroke:#181818;stroke-width:1.0;" x1="54" x2="54" y1="191.416" y2="206.0469"/><rect fill="#E2E2F0" height="14.6309" style="stroke:none;stroke-width:1.0;" width="1" x="58" y="210.0469"/><line style="stroke:#181818;stroke-width:1.0;" x1="58" x2="59" y1="210.0469" y2="210.0469"/><line style="stroke:#181818;stroke-width:1.0;" x1="58" x2="59" y1="224.6777" y2="224.6777"/><line style="stroke:#181818;stroke-width:1.0;" x1="58" x2="58" y1="210.0469" y2="224.6777"/><line style="stroke:#181818;stroke-width:1.0;" x1="59" x2="59" y1="210.0469" y2="224.6777"/><text fill="#000000" font-family="sans-serif" font-size="11" lengthAdjust="spacing" textLength="44" x="10" y="48.8701">&#39033;&#30446;&#21551;&#21160;</text><text fill="#000000" font-family="sans-serif" font-size="11" lengthAdjust="spacing" textLength="66" x="10" y="75.501">&#32452;&#24314;&#39033;&#30446;&#22242;&#38431;</text><text fill="#000000" font-family="sans-serif" font-size="11" lengthAdjust="spacing" textLength="66" x="18" y="94.1318">&#21046;&#23450;&#39033;&#30446;&#35745;&#21010;</text><text fill="#000000" font-family="sans-serif" font-size="11" lengthAdjust="spacing" textLength="44" x="22" y="112.7627">&#21551;&#21160;&#20250;&#35758;</text><text fill="#000000" font-family="sans-serif" font-size="11" lengthAdjust="spacing" textLength="44" x="10" y="139.3936">&#38656;&#27714;&#20998;&#26512;</text><text fill="#000000" font-family="sans-serif" font-size="11" lengthAdjust="spacing" textLength="44" x="34" y="166.0244">&#38656;&#27714;&#35843;&#30740;</text><text fill="#000000" font-family="sans-serif" font-size="11" lengthAdjust="spacing" textLength="44" x="46" y="184.6553">&#38656;&#27714;&#20998;&#26512;</text><text fill="#000000" font-family="sans-serif" font-size="11" lengthAdjust="spacing" textLength="99" x="58" y="203.2861">&#32534;&#20889;&#38656;&#27714;&#35268;&#26684;&#35828;&#26126;&#20070;</text><text fill="#000000" font-family="sans-serif" font-size="11" lengthAdjust="spacing" textLength="44" x="62" y="221.917">&#38656;&#27714;&#35780;&#23457;</text><line style="stroke:#C0C0C0;stroke-width:1.0;" x1="0" x2="60" y1="226.6777" y2="226.6777"/><line style="stroke:#C0C0C0;stroke-width:1.0;" x1="0" x2="0" y1="226.6777" y2="242.6777"/><line style="stroke:#C0C0C0;stroke-width:1.0;" x1="60" x2="60" y1="226.6777" y2="242.6777"/><text fill="#000000" font-family="sans-serif" font-size="12" font-weight="bold" lengthAdjust="spacing" textLength="51.3691" x="4.3154" y="239.627">Mar 2025</text><line style="stroke:#C0C0C0;stroke-width:1.0;" x1="0" x2="60" y1="242.6777" y2="242.6777"/><!--SRC=[TPBFRjD04CRl-nHpR0zR-L-RrWTKqO8WRQ2YQIzH3aky18ExZhpheFI48AeY3gX229KMGSC1E3aW8QJIF4utSTy2snj399kJzOtc-yqtirxdWWIYJPWGg1FuJsXBy1RnA3oZzAdNGpkg1baR1qCpbh5cOar726Eu7bvCpo9vF9AllW76g36zxClBtxFosUVhaqzD81mQ-fBUB3A0C0SymjCYEAJ7KKCEVideL07YQ2W7RtA0KGIOPO0ipDNuD8wYt6eMhSjpLZsrgdq-F9_yU247HvEFnza-gX1_VpazVwjeHjacAtCqSnPadfLRItPOAx5En-_aqVlPxA_zoVau7lsSdBo-klYIauehwSP_GyIZleo6kTKgMakkePuCtr2dH-e1b3GpQIgPtWEfgoXfPDB8fPd9lyrM4w5roXprnw4TB_dkrRQXImFk-WoICPfXBLKMTec0NTe1hGBwcgslsde5xcpLqypM8bgetQq3zyEWHS5nkGZSXw58_8keIhe47eHCk0VKXliToggRMta1Rh6k6_ZiW3A1glkrVmqh5hxffXE390dirz0cVKH2JoIEbk-uh6t3NlqsNaNRXBL3qaxOXu_HXfzmWvuD6_V-0000]--></g></svg>