<svg xmlns="http://www.w3.org/2000/svg" xmlns:xlink="http://www.w3.org/1999/xlink" contentStyleType="text/css" height="391px" preserveAspectRatio="none" style="width:178px;height:391px;background:#FFFFFF;" version="1.1" viewBox="0 0 178 391" width="178px" zoomAndPan="magnify"><defs/><g><text fill="#000000" font-family="sans-serif" font-size="10" lengthAdjust="spacing" textLength="11.123" x="13" y="26.791">10</text><text fill="#000000" font-family="sans-serif" font-size="10" lengthAdjust="spacing" textLength="11.123" x="41" y="26.791">11</text><text fill="#000000" font-family="sans-serif" font-size="10" lengthAdjust="spacing" textLength="11.123" x="69" y="26.791">12</text><text fill="#000000" font-family="sans-serif" font-size="10" lengthAdjust="spacing" textLength="11.123" x="97" y="26.791">13</text><line style="stroke:#C0C0C0;stroke-width:1.0;" x1="8" x2="8" y1="16" y2="373.0938"/><line style="stroke:#C0C0C0;stroke-width:1.0;" x1="36" x2="36" y1="16" y2="373.0938"/><line style="stroke:#C0C0C0;stroke-width:1.0;" x1="64" x2="64" y1="16" y2="373.0938"/><line style="stroke:#C0C0C0;stroke-width:1.0;" x1="92" x2="92" y1="16" y2="373.0938"/><line style="stroke:#C0C0C0;stroke-width:1.0;" x1="120" x2="120" y1="16" y2="373.0938"/><line style="stroke:#C0C0C0;stroke-width:1.0;" x1="124" x2="124" y1="16" y2="373.0938"/><line style="stroke:#C0C0C0;stroke-width:1.0;" x1="0" x2="0" y1="0" y2="16"/><line style="stroke:#C0C0C0;stroke-width:1.0;" x1="124" x2="124" y1="0" y2="16"/><text fill="#000000" font-family="sans-serif" font-size="12" font-weight="bold" lengthAdjust="spacing" textLength="51.3691" x="36.3154" y="12.9492">Mar 2025</text><line style="stroke:#C0C0C0;stroke-width:1.0;" x1="0" x2="124" y1="0" y2="0"/><line style="stroke:#C0C0C0;stroke-width:1.0;" x1="0" x2="124" y1="16" y2="16"/><line style="stroke:#C0C0C0;stroke-width:1.0;" x1="0" x2="124" y1="27" y2="27"/><line style="stroke:#181818;stroke-width:1.5;" x1="-1" x2="-1" y1="78.2617" y2="89.5771"/><line style="stroke:#181818;stroke-width:1.5;" x1="-1" x2="7" y1="89.5771" y2="89.5771"/><polygon fill="#181818" points="3,85.5771,3,89.5771,3,93.5771,7,89.5771" style="stroke:#181818;stroke-width:1.5;"/><line style="stroke:#181818;stroke-width:1.5;" x1="7" x2="7" y1="96.8926" y2="108.208"/><line style="stroke:#181818;stroke-width:1.5;" x1="7" x2="15" y1="108.208" y2="108.208"/><polygon fill="#181818" points="11,104.208,11,108.208,11,112.208,15,108.208" style="stroke:#181818;stroke-width:1.5;"/><line style="stroke:#181818;stroke-width:1.5;" x1="11" x2="11" y1="115.5234" y2="161.4697"/><line style="stroke:#181818;stroke-width:1.5;" x1="11" x2="19" y1="161.4697" y2="161.4697"/><polygon fill="#181818" points="15,157.4697,15,161.4697,15,165.4697,19,161.4697" style="stroke:#181818;stroke-width:1.5;"/><line style="stroke:#181818;stroke-width:1.5;" x1="23" x2="23" y1="168.7852" y2="180.1006"/><line style="stroke:#181818;stroke-width:1.5;" x1="23" x2="31" y1="180.1006" y2="180.1006"/><polygon fill="#181818" points="27,176.1006,27,180.1006,27,184.1006,31,180.1006" style="stroke:#181818;stroke-width:1.5;"/><line style="stroke:#181818;stroke-width:1.5;" x1="35" x2="35" y1="187.416" y2="198.7314"/><line style="stroke:#181818;stroke-width:1.5;" x1="35" x2="43" y1="198.7314" y2="198.7314"/><polygon fill="#181818" points="39,194.7314,39,198.7314,39,202.7314,43,198.7314" style="stroke:#181818;stroke-width:1.5;"/><line style="stroke:#181818;stroke-width:1.5;" x1="47" x2="47" y1="206.0469" y2="217.3623"/><line style="stroke:#181818;stroke-width:1.5;" x1="47" x2="55" y1="217.3623" y2="217.3623"/><polygon fill="#181818" points="51,213.3623,51,217.3623,51,221.3623,55,217.3623" style="stroke:#181818;stroke-width:1.5;"/><line style="stroke:#181818;stroke-width:1.5;" x1="51" x2="51" y1="224.6777" y2="270.624"/><line style="stroke:#181818;stroke-width:1.5;" x1="51" x2="59" y1="270.624" y2="270.624"/><polygon fill="#181818" points="55,266.624,55,270.624,55,274.624,59,270.624" style="stroke:#181818;stroke-width:1.5;"/><line style="stroke:#181818;stroke-width:1.5;" x1="63" x2="63" y1="277.9395" y2="289.2549"/><line style="stroke:#181818;stroke-width:1.5;" x1="63" x2="71" y1="289.2549" y2="289.2549"/><polygon fill="#181818" points="67,285.2549,67,289.2549,67,293.2549,71,289.2549" style="stroke:#181818;stroke-width:1.5;"/><line style="stroke:#181818;stroke-width:1.5;" x1="70" x2="70" y1="277.9395" y2="307.8857"/><line style="stroke:#181818;stroke-width:1.5;" x1="70" x2="83" y1="307.8857" y2="307.8857"/><polygon fill="#181818" points="79,303.8857,79,307.8857,79,311.8857,83,307.8857" style="stroke:#181818;stroke-width:1.5;"/><line style="stroke:#181818;stroke-width:1.5;" x1="70" x2="70" y1="277.9395" y2="326.5166"/><line style="stroke:#181818;stroke-width:1.5;" x1="70" x2="95" y1="326.5166" y2="326.5166"/><polygon fill="#181818" points="91,322.5166,91,326.5166,91,330.5166,95,326.5166" style="stroke:#181818;stroke-width:1.5;"/><line style="stroke:#181818;stroke-width:1.5;" x1="70" x2="70" y1="277.9395" y2="345.1475"/><line style="stroke:#181818;stroke-width:1.5;" x1="70" x2="107" y1="345.1475" y2="345.1475"/><polygon fill="#181818" points="103,341.1475,103,345.1475,103,349.1475,107,345.1475" style="stroke:#181818;stroke-width:1.5;"/><line style="stroke:#181818;stroke-width:1.5;" x1="82" x2="82" y1="296.5703" y2="363.7783"/><line style="stroke:#181818;stroke-width:1.5;" x1="82" x2="115" y1="363.7783" y2="363.7783"/><polygon fill="#181818" points="111,359.7783,111,363.7783,111,367.7783,115,363.7783" style="stroke:#181818;stroke-width:1.5;"/><line style="stroke:#181818;stroke-width:1.5;" x1="94" x2="94" y1="315.2012" y2="363.7783"/><line style="stroke:#181818;stroke-width:1.5;" x1="94" x2="115" y1="363.7783" y2="363.7783"/><polygon fill="#181818" points="111,359.7783,111,363.7783,111,367.7783,115,363.7783" style="stroke:#181818;stroke-width:1.5;"/><line style="stroke:#181818;stroke-width:1.5;" x1="106" x2="106" y1="333.832" y2="363.7783"/><line style="stroke:#181818;stroke-width:1.5;" x1="106" x2="115" y1="363.7783" y2="363.7783"/><polygon fill="#181818" points="111,359.7783,111,363.7783,111,367.7783,115,363.7783" style="stroke:#181818;stroke-width:1.5;"/><line style="stroke:#181818;stroke-width:1.5;" x1="107" x2="107" y1="352.4629" y2="363.7783"/><line style="stroke:#181818;stroke-width:1.5;" x1="107" x2="115" y1="363.7783" y2="363.7783"/><polygon fill="#181818" points="111,359.7783,111,363.7783,111,367.7783,115,363.7783" style="stroke:#181818;stroke-width:1.5;"/><line style="stroke:#181818;stroke-width:1.0;" x1="0" x2="5" y1="44.3154" y2="44.3154"/><line style="stroke:#181818;stroke-width:1.0;" x1="59" x2="123" y1="44.3154" y2="44.3154"/><rect fill="#E2E2F0" height="14.6309" style="stroke:none;stroke-width:1.0;" width="4" x="2" y="63.6309"/><line style="stroke:#181818;stroke-width:1.0;" x1="2" x2="6" y1="63.6309" y2="63.6309"/><line style="stroke:#181818;stroke-width:1.0;" x1="2" x2="6" y1="78.2617" y2="78.2617"/><line style="stroke:#181818;stroke-width:1.0;" x1="2" x2="2" y1="63.6309" y2="78.2617"/><line style="stroke:#181818;stroke-width:1.0;" x1="6" x2="6" y1="63.6309" y2="78.2617"/><rect fill="#E2E2F0" height="14.6309" style="stroke:none;stroke-width:1.0;" width="4" x="10" y="82.2617"/><line style="stroke:#181818;stroke-width:1.0;" x1="10" x2="14" y1="82.2617" y2="82.2617"/><line style="stroke:#181818;stroke-width:1.0;" x1="10" x2="14" y1="96.8926" y2="96.8926"/><line style="stroke:#181818;stroke-width:1.0;" x1="10" x2="10" y1="82.2617" y2="96.8926"/><line style="stroke:#181818;stroke-width:1.0;" x1="14" x2="14" y1="82.2617" y2="96.8926"/><rect fill="#E2E2F0" height="14.6309" style="stroke:none;stroke-width:1.0;" width="1" x="18" y="100.8926"/><line style="stroke:#181818;stroke-width:1.0;" x1="18" x2="19" y1="100.8926" y2="100.8926"/><line style="stroke:#181818;stroke-width:1.0;" x1="18" x2="19" y1="115.5234" y2="115.5234"/><line style="stroke:#181818;stroke-width:1.0;" x1="18" x2="18" y1="100.8926" y2="115.5234"/><line style="stroke:#181818;stroke-width:1.0;" x1="19" x2="19" y1="100.8926" y2="115.5234"/><line style="stroke:#181818;stroke-width:1.0;" x1="0" x2="5" y1="134.8389" y2="134.8389"/><line style="stroke:#181818;stroke-width:1.0;" x1="59" x2="123" y1="134.8389" y2="134.8389"/><rect fill="#E2E2F0" height="14.6309" style="stroke:none;stroke-width:1.0;" width="8" x="22" y="154.1543"/><line style="stroke:#181818;stroke-width:1.0;" x1="22" x2="30" y1="154.1543" y2="154.1543"/><line style="stroke:#181818;stroke-width:1.0;" x1="22" x2="30" y1="168.7852" y2="168.7852"/><line style="stroke:#181818;stroke-width:1.0;" x1="22" x2="22" y1="154.1543" y2="168.7852"/><line style="stroke:#181818;stroke-width:1.0;" x1="30" x2="30" y1="154.1543" y2="168.7852"/><rect fill="#E2E2F0" height="14.6309" style="stroke:none;stroke-width:1.0;" width="8" x="34" y="172.7852"/><line style="stroke:#181818;stroke-width:1.0;" x1="34" x2="42" y1="172.7852" y2="172.7852"/><line style="stroke:#181818;stroke-width:1.0;" x1="34" x2="42" y1="187.416" y2="187.416"/><line style="stroke:#181818;stroke-width:1.0;" x1="34" x2="34" y1="172.7852" y2="187.416"/><line style="stroke:#181818;stroke-width:1.0;" x1="42" x2="42" y1="172.7852" y2="187.416"/><rect fill="#E2E2F0" height="14.6309" style="stroke:none;stroke-width:1.0;" width="8" x="46" y="191.416"/><line style="stroke:#181818;stroke-width:1.0;" x1="46" x2="54" y1="191.416" y2="191.416"/><line style="stroke:#181818;stroke-width:1.0;" x1="46" x2="54" y1="206.0469" y2="206.0469"/><line style="stroke:#181818;stroke-width:1.0;" x1="46" x2="46" y1="191.416" y2="206.0469"/><line style="stroke:#181818;stroke-width:1.0;" x1="54" x2="54" y1="191.416" y2="206.0469"/><rect fill="#E2E2F0" height="14.6309" style="stroke:none;stroke-width:1.0;" width="1" x="58" y="210.0469"/><line style="stroke:#181818;stroke-width:1.0;" x1="58" x2="59" y1="210.0469" y2="210.0469"/><line style="stroke:#181818;stroke-width:1.0;" x1="58" x2="59" y1="224.6777" y2="224.6777"/><line style="stroke:#181818;stroke-width:1.0;" x1="58" x2="58" y1="210.0469" y2="224.6777"/><line style="stroke:#181818;stroke-width:1.0;" x1="59" x2="59" y1="210.0469" y2="224.6777"/><line style="stroke:#181818;stroke-width:1.0;" x1="0" x2="5" y1="243.9932" y2="243.9932"/><line style="stroke:#181818;stroke-width:1.0;" x1="59" x2="123" y1="243.9932" y2="243.9932"/><rect fill="#E2E2F0" height="14.6309" style="stroke:none;stroke-width:1.0;" width="8" x="62" y="263.3086"/><line style="stroke:#181818;stroke-width:1.0;" x1="62" x2="70" y1="263.3086" y2="263.3086"/><line style="stroke:#181818;stroke-width:1.0;" x1="62" x2="70" y1="277.9395" y2="277.9395"/><line style="stroke:#181818;stroke-width:1.0;" x1="62" x2="62" y1="263.3086" y2="277.9395"/><line style="stroke:#181818;stroke-width:1.0;" x1="70" x2="70" y1="263.3086" y2="277.9395"/><rect fill="#E2E2F0" height="14.6309" style="stroke:none;stroke-width:1.0;" width="8" x="74" y="281.9395"/><line style="stroke:#181818;stroke-width:1.0;" x1="74" x2="82" y1="281.9395" y2="281.9395"/><line style="stroke:#181818;stroke-width:1.0;" x1="74" x2="82" y1="296.5703" y2="296.5703"/><line style="stroke:#181818;stroke-width:1.0;" x1="74" x2="74" y1="281.9395" y2="296.5703"/><line style="stroke:#181818;stroke-width:1.0;" x1="82" x2="82" y1="281.9395" y2="296.5703"/><rect fill="#E2E2F0" height="14.6309" style="stroke:none;stroke-width:1.0;" width="8" x="86" y="300.5703"/><line style="stroke:#181818;stroke-width:1.0;" x1="86" x2="94" y1="300.5703" y2="300.5703"/><line style="stroke:#181818;stroke-width:1.0;" x1="86" x2="94" y1="315.2012" y2="315.2012"/><line style="stroke:#181818;stroke-width:1.0;" x1="86" x2="86" y1="300.5703" y2="315.2012"/><line style="stroke:#181818;stroke-width:1.0;" x1="94" x2="94" y1="300.5703" y2="315.2012"/><rect fill="#E2E2F0" height="14.6309" style="stroke:none;stroke-width:1.0;" width="8" x="98" y="319.2012"/><line style="stroke:#181818;stroke-width:1.0;" x1="98" x2="106" y1="319.2012" y2="319.2012"/><line style="stroke:#181818;stroke-width:1.0;" x1="98" x2="106" y1="333.832" y2="333.832"/><line style="stroke:#181818;stroke-width:1.0;" x1="98" x2="98" y1="319.2012" y2="333.832"/><line style="stroke:#181818;stroke-width:1.0;" x1="106" x2="106" y1="319.2012" y2="333.832"/><rect fill="#E2E2F0" height="14.6309" style="stroke:none;stroke-width:1.0;" width="4" x="110" y="337.832"/><line style="stroke:#181818;stroke-width:1.0;" x1="110" x2="114" y1="337.832" y2="337.832"/><line style="stroke:#181818;stroke-width:1.0;" x1="110" x2="114" y1="352.4629" y2="352.4629"/><line style="stroke:#181818;stroke-width:1.0;" x1="110" x2="110" y1="337.832" y2="352.4629"/><line style="stroke:#181818;stroke-width:1.0;" x1="114" x2="114" y1="337.832" y2="352.4629"/><rect fill="#E2E2F0" height="14.6309" style="stroke:none;stroke-width:1.0;" width="4" x="118" y="356.4629"/><line style="stroke:#181818;stroke-width:1.0;" x1="118" x2="122" y1="356.4629" y2="356.4629"/><line style="stroke:#181818;stroke-width:1.0;" x1="118" x2="122" y1="371.0938" y2="371.0938"/><line style="stroke:#181818;stroke-width:1.0;" x1="118" x2="118" y1="356.4629" y2="371.0938"/><line style="stroke:#181818;stroke-width:1.0;" x1="122" x2="122" y1="356.4629" y2="371.0938"/><text fill="#000000" font-family="sans-serif" font-size="11" lengthAdjust="spacing" textLength="44" x="10" y="48.8701">&#39033;&#30446;&#21551;&#21160;</text><text fill="#000000" font-family="sans-serif" font-size="11" lengthAdjust="spacing" textLength="66" x="10" y="75.501">&#32452;&#24314;&#39033;&#30446;&#22242;&#38431;</text><text fill="#000000" font-family="sans-serif" font-size="11" lengthAdjust="spacing" textLength="66" x="18" y="94.1318">&#21046;&#23450;&#39033;&#30446;&#35745;&#21010;</text><text fill="#000000" font-family="sans-serif" font-size="11" lengthAdjust="spacing" textLength="44" x="22" y="112.7627">&#21551;&#21160;&#20250;&#35758;</text><text fill="#000000" font-family="sans-serif" font-size="11" lengthAdjust="spacing" textLength="44" x="10" y="139.3936">&#38656;&#27714;&#20998;&#26512;</text><text fill="#000000" font-family="sans-serif" font-size="11" lengthAdjust="spacing" textLength="44" x="34" y="166.0244">&#38656;&#27714;&#35843;&#30740;</text><text fill="#000000" font-family="sans-serif" font-size="11" lengthAdjust="spacing" textLength="44" x="46" y="184.6553">&#38656;&#27714;&#20998;&#26512;</text><text fill="#000000" font-family="sans-serif" font-size="11" lengthAdjust="spacing" textLength="99" x="58" y="203.2861">&#32534;&#20889;&#38656;&#27714;&#35268;&#26684;&#35828;&#26126;&#20070;</text><text fill="#000000" font-family="sans-serif" font-size="11" lengthAdjust="spacing" textLength="44" x="62" y="221.917">&#38656;&#27714;&#35780;&#23457;</text><text fill="#000000" font-family="sans-serif" font-size="11" lengthAdjust="spacing" textLength="44" x="10" y="248.5479">&#31995;&#32479;&#35774;&#35745;</text><text fill="#000000" font-family="sans-serif" font-size="11" lengthAdjust="spacing" textLength="66" x="74" y="275.1787">&#31995;&#32479;&#26550;&#26500;&#35774;&#35745;</text><text fill="#000000" font-family="sans-serif" font-size="11" lengthAdjust="spacing" textLength="55" x="86" y="293.8096">&#25968;&#25454;&#24211;&#35774;&#35745;</text><text fill="#000000" font-family="sans-serif" font-size="11" lengthAdjust="spacing" textLength="44" x="98" y="312.4404">&#30028;&#38754;&#35774;&#35745;</text><text fill="#000000" font-family="sans-serif" font-size="11" lengthAdjust="spacing" textLength="66" x="110" y="331.0713">&#21151;&#33021;&#27169;&#22359;&#35774;&#35745;</text><text fill="#000000" font-family="sans-serif" font-size="11" lengthAdjust="spacing" textLength="44" x="118" y="349.7021">&#25509;&#21475;&#35774;&#35745;</text><text fill="#000000" font-family="sans-serif" font-size="11" lengthAdjust="spacing" textLength="44" x="126" y="368.333">&#35774;&#35745;&#35780;&#23457;</text><line style="stroke:#C0C0C0;stroke-width:1.0;" x1="0" x2="124" y1="373.0938" y2="373.0938"/><line style="stroke:#C0C0C0;stroke-width:1.0;" x1="0" x2="0" y1="373.0938" y2="389.0938"/><line style="stroke:#C0C0C0;stroke-width:1.0;" x1="124" x2="124" y1="373.0938" y2="389.0938"/><text fill="#000000" font-family="sans-serif" font-size="12" font-weight="bold" lengthAdjust="spacing" textLength="51.3691" x="36.3154" y="386.043">Mar 2025</text><line style="stroke:#C0C0C0;stroke-width:1.0;" x1="0" x2="124" y1="389.0938" y2="389.0938"/><!--SRC=[TPJHJzD07CVVxw-uHtZeqlRQ3VPWYA3HmPJ8u6NXuTpgh8vsQRkPyMHa8GjH92gA81l3g3nr60q9RFhNS6ttNzZThTgczQdv_dAVx_r-txlhd6bXmwfWpR90pT2VA2NBBE6g0fyfojDg4oop6gJBJ2ZoeipnYEC503WEZdgNxf5Dzlfavmno72YwWnOPN4tAHwUZW-uwn2Oi2YbXFUu1iLQ6LMoEYx2CcoOealO5iG-PWMVtIFjDO2363L2I0MtcUdZesNQ0eZWgXr1XZB9vFZrtlhyWxMsdiqVdOGNlVCizUSVSnAH9qY4tD6aax1MW2JFC9g3ky3tP_ZZP-rlBEHbw_P_EmUxrvTV0AJwI8Fwt2Q_V8dOlGAKucfo6-sFW3hgU_Ti_27QwjE1qBfnEYvMP9qh8H4ZAnDa_TrxPvEfjb8x78YJ6ilzoT7mQHUCvY4ava9skj_NBEUkHumzHWtWQefpK-UuNylfp59NZw4p2ZMHG-0nGAXr34Hz70Nitt0rs_m5x1KmYAX6Juqi9sDLaKgHI32IYykzYYKg9IKHP5B28iY69ebAAIfbACP1fAb5KIb4fXoIOKxGo-_k0vQh_NSqlmOPYcAgkGNzQNfHIcQaLRC4LfGRv31Hciy9CLiZ0Euk5SNRID9ZAtor0KwyR9GMMLTCor8Tro-UdGGutC7nGronrGyd2-pL5ooqi1WLuIskeXgvjA9e5SclvVmlI4dTJ7Uze-9t0jJnOK1xXUjNoYP9ULhLA5guMRdCpO0bhbJgk-DwRZy6yxliQpIoSl_S7]--></g></svg>