<svg xmlns="http://www.w3.org/2000/svg" xmlns:xlink="http://www.w3.org/1999/xlink" contentStyleType="text/css" height="702px" preserveAspectRatio="none" style="width:302px;height:702px;background:#FFFFFF;" version="1.1" viewBox="0 0 302 702" width="302px" zoomAndPan="magnify"><defs/><g><text fill="#000000" font-family="sans-serif" font-size="10" lengthAdjust="spacing" textLength="11.123" x="13" y="26.791">10</text><text fill="#000000" font-family="sans-serif" font-size="10" lengthAdjust="spacing" textLength="11.123" x="41" y="26.791">11</text><text fill="#000000" font-family="sans-serif" font-size="10" lengthAdjust="spacing" textLength="11.123" x="69" y="26.791">12</text><text fill="#000000" font-family="sans-serif" font-size="10" lengthAdjust="spacing" textLength="11.123" x="97" y="26.791">13</text><text fill="#000000" font-family="sans-serif" font-size="10" lengthAdjust="spacing" textLength="11.123" x="125" y="26.791">14</text><text fill="#000000" font-family="sans-serif" font-size="10" lengthAdjust="spacing" textLength="11.123" x="153" y="26.791">15</text><text fill="#000000" font-family="sans-serif" font-size="10" lengthAdjust="spacing" textLength="11.123" x="181" y="26.791">16</text><text fill="#000000" font-family="sans-serif" font-size="10" lengthAdjust="spacing" textLength="11.123" x="209" y="26.791">17</text><text fill="#000000" font-family="sans-serif" font-size="10" lengthAdjust="spacing" textLength="11.123" x="237" y="26.791">18</text><line style="stroke:#C0C0C0;stroke-width:1.0;" x1="8" x2="8" y1="16" y2="684.5566"/><line style="stroke:#C0C0C0;stroke-width:1.0;" x1="36" x2="36" y1="16" y2="684.5566"/><line style="stroke:#C0C0C0;stroke-width:1.0;" x1="64" x2="64" y1="16" y2="684.5566"/><line style="stroke:#C0C0C0;stroke-width:1.0;" x1="92" x2="92" y1="16" y2="684.5566"/><line style="stroke:#C0C0C0;stroke-width:1.0;" x1="120" x2="120" y1="16" y2="684.5566"/><line style="stroke:#C0C0C0;stroke-width:1.0;" x1="148" x2="148" y1="16" y2="684.5566"/><line style="stroke:#C0C0C0;stroke-width:1.0;" x1="176" x2="176" y1="16" y2="684.5566"/><line style="stroke:#C0C0C0;stroke-width:1.0;" x1="204" x2="204" y1="16" y2="684.5566"/><line style="stroke:#C0C0C0;stroke-width:1.0;" x1="232" x2="232" y1="16" y2="684.5566"/><line style="stroke:#C0C0C0;stroke-width:1.0;" x1="244" x2="244" y1="16" y2="684.5566"/><line style="stroke:#C0C0C0;stroke-width:1.0;" x1="0" x2="0" y1="0" y2="16"/><line style="stroke:#C0C0C0;stroke-width:1.0;" x1="124" x2="124" y1="0" y2="16"/><text fill="#000000" font-family="sans-serif" font-size="12" font-weight="bold" lengthAdjust="spacing" textLength="51.3691" x="36.3154" y="12.9492">Mar 2025</text><line style="stroke:#C0C0C0;stroke-width:1.0;" x1="244" x2="244" y1="0" y2="16"/><text fill="#000000" font-family="sans-serif" font-size="12" font-weight="bold" lengthAdjust="spacing" textLength="50.6953" x="158.6523" y="12.9492">Apr 2025</text><line style="stroke:#C0C0C0;stroke-width:1.0;" x1="0" x2="244" y1="0" y2="0"/><line style="stroke:#C0C0C0;stroke-width:1.0;" x1="0" x2="244" y1="16" y2="16"/><line style="stroke:#C0C0C0;stroke-width:1.0;" x1="0" x2="244" y1="27" y2="27"/><line style="stroke:#181818;stroke-width:1.5;" x1="-1" x2="-1" y1="78.2617" y2="89.5771"/><line style="stroke:#181818;stroke-width:1.5;" x1="-1" x2="7" y1="89.5771" y2="89.5771"/><polygon fill="#181818" points="3,85.5771,3,89.5771,3,93.5771,7,89.5771" style="stroke:#181818;stroke-width:1.5;"/><line style="stroke:#181818;stroke-width:1.5;" x1="7" x2="7" y1="96.8926" y2="108.208"/><line style="stroke:#181818;stroke-width:1.5;" x1="7" x2="15" y1="108.208" y2="108.208"/><polygon fill="#181818" points="11,104.208,11,108.208,11,112.208,15,108.208" style="stroke:#181818;stroke-width:1.5;"/><line style="stroke:#181818;stroke-width:1.5;" x1="11" x2="11" y1="115.5234" y2="161.4697"/><line style="stroke:#181818;stroke-width:1.5;" x1="11" x2="19" y1="161.4697" y2="161.4697"/><polygon fill="#181818" points="15,157.4697,15,161.4697,15,165.4697,19,161.4697" style="stroke:#181818;stroke-width:1.5;"/><line style="stroke:#181818;stroke-width:1.5;" x1="23" x2="23" y1="168.7852" y2="180.1006"/><line style="stroke:#181818;stroke-width:1.5;" x1="23" x2="31" y1="180.1006" y2="180.1006"/><polygon fill="#181818" points="27,176.1006,27,180.1006,27,184.1006,31,180.1006" style="stroke:#181818;stroke-width:1.5;"/><line style="stroke:#181818;stroke-width:1.5;" x1="35" x2="35" y1="187.416" y2="198.7314"/><line style="stroke:#181818;stroke-width:1.5;" x1="35" x2="43" y1="198.7314" y2="198.7314"/><polygon fill="#181818" points="39,194.7314,39,198.7314,39,202.7314,43,198.7314" style="stroke:#181818;stroke-width:1.5;"/><line style="stroke:#181818;stroke-width:1.5;" x1="47" x2="47" y1="206.0469" y2="217.3623"/><line style="stroke:#181818;stroke-width:1.5;" x1="47" x2="55" y1="217.3623" y2="217.3623"/><polygon fill="#181818" points="51,213.3623,51,217.3623,51,221.3623,55,217.3623" style="stroke:#181818;stroke-width:1.5;"/><line style="stroke:#181818;stroke-width:1.5;" x1="51" x2="51" y1="224.6777" y2="270.624"/><line style="stroke:#181818;stroke-width:1.5;" x1="51" x2="59" y1="270.624" y2="270.624"/><polygon fill="#181818" points="55,266.624,55,270.624,55,274.624,59,270.624" style="stroke:#181818;stroke-width:1.5;"/><line style="stroke:#181818;stroke-width:1.5;" x1="63" x2="63" y1="277.9395" y2="289.2549"/><line style="stroke:#181818;stroke-width:1.5;" x1="63" x2="71" y1="289.2549" y2="289.2549"/><polygon fill="#181818" points="67,285.2549,67,289.2549,67,293.2549,71,289.2549" style="stroke:#181818;stroke-width:1.5;"/><line style="stroke:#181818;stroke-width:1.5;" x1="70" x2="70" y1="277.9395" y2="307.8857"/><line style="stroke:#181818;stroke-width:1.5;" x1="70" x2="83" y1="307.8857" y2="307.8857"/><polygon fill="#181818" points="79,303.8857,79,307.8857,79,311.8857,83,307.8857" style="stroke:#181818;stroke-width:1.5;"/><line style="stroke:#181818;stroke-width:1.5;" x1="70" x2="70" y1="277.9395" y2="326.5166"/><line style="stroke:#181818;stroke-width:1.5;" x1="70" x2="95" y1="326.5166" y2="326.5166"/><polygon fill="#181818" points="91,322.5166,91,326.5166,91,330.5166,95,326.5166" style="stroke:#181818;stroke-width:1.5;"/><line style="stroke:#181818;stroke-width:1.5;" x1="70" x2="70" y1="277.9395" y2="345.1475"/><line style="stroke:#181818;stroke-width:1.5;" x1="70" x2="107" y1="345.1475" y2="345.1475"/><polygon fill="#181818" points="103,341.1475,103,345.1475,103,349.1475,107,345.1475" style="stroke:#181818;stroke-width:1.5;"/><line style="stroke:#181818;stroke-width:1.5;" x1="82" x2="82" y1="296.5703" y2="363.7783"/><line style="stroke:#181818;stroke-width:1.5;" x1="82" x2="115" y1="363.7783" y2="363.7783"/><polygon fill="#181818" points="111,359.7783,111,363.7783,111,367.7783,115,363.7783" style="stroke:#181818;stroke-width:1.5;"/><line style="stroke:#181818;stroke-width:1.5;" x1="94" x2="94" y1="315.2012" y2="363.7783"/><line style="stroke:#181818;stroke-width:1.5;" x1="94" x2="115" y1="363.7783" y2="363.7783"/><polygon fill="#181818" points="111,359.7783,111,363.7783,111,367.7783,115,363.7783" style="stroke:#181818;stroke-width:1.5;"/><line style="stroke:#181818;stroke-width:1.5;" x1="106" x2="106" y1="333.832" y2="363.7783"/><line style="stroke:#181818;stroke-width:1.5;" x1="106" x2="115" y1="363.7783" y2="363.7783"/><polygon fill="#181818" points="111,359.7783,111,363.7783,111,367.7783,115,363.7783" style="stroke:#181818;stroke-width:1.5;"/><line style="stroke:#181818;stroke-width:1.5;" x1="107" x2="107" y1="352.4629" y2="363.7783"/><line style="stroke:#181818;stroke-width:1.5;" x1="107" x2="115" y1="363.7783" y2="363.7783"/><polygon fill="#181818" points="111,359.7783,111,363.7783,111,367.7783,115,363.7783" style="stroke:#181818;stroke-width:1.5;"/><line style="stroke:#181818;stroke-width:1.5;" x1="115" x2="115" y1="371.0938" y2="417.04"/><line style="stroke:#181818;stroke-width:1.5;" x1="115" x2="123" y1="417.04" y2="417.04"/><polygon fill="#181818" points="119,413.04,119,417.04,119,421.04,123,417.04" style="stroke:#181818;stroke-width:1.5;"/><line style="stroke:#181818;stroke-width:1.5;" x1="123" x2="123" y1="424.3555" y2="435.6709"/><line style="stroke:#181818;stroke-width:1.5;" x1="123" x2="131" y1="435.6709" y2="435.6709"/><polygon fill="#181818" points="127,431.6709,127,435.6709,127,439.6709,131,435.6709" style="stroke:#181818;stroke-width:1.5;"/><line style="stroke:#181818;stroke-width:1.5;" x1="135" x2="135" y1="442.9863" y2="454.3018"/><line style="stroke:#181818;stroke-width:1.5;" x1="135" x2="143" y1="454.3018" y2="454.3018"/><polygon fill="#181818" points="139,450.3018,139,454.3018,139,458.3018,143,454.3018" style="stroke:#181818;stroke-width:1.5;"/><line style="stroke:#181818;stroke-width:1.5;" x1="151" x2="151" y1="461.6172" y2="472.9326"/><line style="stroke:#181818;stroke-width:1.5;" x1="151" x2="159" y1="472.9326" y2="472.9326"/><polygon fill="#181818" points="155,468.9326,155,472.9326,155,476.9326,159,472.9326" style="stroke:#181818;stroke-width:1.5;"/><line style="stroke:#181818;stroke-width:1.5;" x1="167" x2="167" y1="480.248" y2="491.5635"/><line style="stroke:#181818;stroke-width:1.5;" x1="167" x2="175" y1="491.5635" y2="491.5635"/><polygon fill="#181818" points="171,487.5635,171,491.5635,171,495.5635,175,491.5635" style="stroke:#181818;stroke-width:1.5;"/><line style="stroke:#181818;stroke-width:1.5;" x1="183" x2="183" y1="498.8789" y2="510.1943"/><line style="stroke:#181818;stroke-width:1.5;" x1="183" x2="191" y1="510.1943" y2="510.1943"/><polygon fill="#181818" points="187,506.1943,187,510.1943,187,514.1943,191,510.1943" style="stroke:#181818;stroke-width:1.5;"/><line style="stroke:#181818;stroke-width:1.5;" x1="191" x2="191" y1="517.5098" y2="528.8252"/><line style="stroke:#181818;stroke-width:1.5;" x1="191" x2="199" y1="528.8252" y2="528.8252"/><polygon fill="#181818" points="195,524.8252,195,528.8252,195,532.8252,199,528.8252" style="stroke:#181818;stroke-width:1.5;"/><line style="stroke:#181818;stroke-width:1.5;" x1="195" x2="195" y1="536.1406" y2="582.0869"/><line style="stroke:#181818;stroke-width:1.5;" x1="195" x2="203" y1="582.0869" y2="582.0869"/><polygon fill="#181818" points="199,578.0869,199,582.0869,199,586.0869,203,582.0869" style="stroke:#181818;stroke-width:1.5;"/><line style="stroke:#181818;stroke-width:1.5;" x1="203" x2="203" y1="589.4023" y2="600.7178"/><line style="stroke:#181818;stroke-width:1.5;" x1="203" x2="211" y1="600.7178" y2="600.7178"/><polygon fill="#181818" points="207,596.7178,207,600.7178,207,604.7178,211,600.7178" style="stroke:#181818;stroke-width:1.5;"/><line style="stroke:#181818;stroke-width:1.5;" x1="215" x2="215" y1="608.0332" y2="619.3486"/><line style="stroke:#181818;stroke-width:1.5;" x1="215" x2="223" y1="619.3486" y2="619.3486"/><polygon fill="#181818" points="219,615.3486,219,619.3486,219,623.3486,223,619.3486" style="stroke:#181818;stroke-width:1.5;"/><line style="stroke:#181818;stroke-width:1.5;" x1="223" x2="223" y1="626.6641" y2="637.9795"/><line style="stroke:#181818;stroke-width:1.5;" x1="223" x2="231" y1="637.9795" y2="637.9795"/><polygon fill="#181818" points="227,633.9795,227,637.9795,227,641.9795,231,637.9795" style="stroke:#181818;stroke-width:1.5;"/><line style="stroke:#181818;stroke-width:1.5;" x1="227" x2="227" y1="645.2949" y2="656.6104"/><line style="stroke:#181818;stroke-width:1.5;" x1="227" x2="235" y1="656.6104" y2="656.6104"/><polygon fill="#181818" points="231,652.6104,231,656.6104,231,660.6104,235,656.6104" style="stroke:#181818;stroke-width:1.5;"/><line style="stroke:#181818;stroke-width:1.5;" x1="231" x2="231" y1="663.9258" y2="675.2412"/><line style="stroke:#181818;stroke-width:1.5;" x1="231" x2="239" y1="675.2412" y2="675.2412"/><polygon fill="#181818" points="235,671.2412,235,675.2412,235,679.2412,239,675.2412" style="stroke:#181818;stroke-width:1.5;"/><line style="stroke:#181818;stroke-width:1.0;" x1="0" x2="5" y1="44.3154" y2="44.3154"/><line style="stroke:#181818;stroke-width:1.0;" x1="59" x2="243" y1="44.3154" y2="44.3154"/><rect fill="#E2E2F0" height="14.6309" style="stroke:none;stroke-width:1.0;" width="4" x="2" y="63.6309"/><line style="stroke:#181818;stroke-width:1.0;" x1="2" x2="6" y1="63.6309" y2="63.6309"/><line style="stroke:#181818;stroke-width:1.0;" x1="2" x2="6" y1="78.2617" y2="78.2617"/><line style="stroke:#181818;stroke-width:1.0;" x1="2" x2="2" y1="63.6309" y2="78.2617"/><line style="stroke:#181818;stroke-width:1.0;" x1="6" x2="6" y1="63.6309" y2="78.2617"/><rect fill="#E2E2F0" height="14.6309" style="stroke:none;stroke-width:1.0;" width="4" x="10" y="82.2617"/><line style="stroke:#181818;stroke-width:1.0;" x1="10" x2="14" y1="82.2617" y2="82.2617"/><line style="stroke:#181818;stroke-width:1.0;" x1="10" x2="14" y1="96.8926" y2="96.8926"/><line style="stroke:#181818;stroke-width:1.0;" x1="10" x2="10" y1="82.2617" y2="96.8926"/><line style="stroke:#181818;stroke-width:1.0;" x1="14" x2="14" y1="82.2617" y2="96.8926"/><rect fill="#E2E2F0" height="14.6309" style="stroke:none;stroke-width:1.0;" width="1" x="18" y="100.8926"/><line style="stroke:#181818;stroke-width:1.0;" x1="18" x2="19" y1="100.8926" y2="100.8926"/><line style="stroke:#181818;stroke-width:1.0;" x1="18" x2="19" y1="115.5234" y2="115.5234"/><line style="stroke:#181818;stroke-width:1.0;" x1="18" x2="18" y1="100.8926" y2="115.5234"/><line style="stroke:#181818;stroke-width:1.0;" x1="19" x2="19" y1="100.8926" y2="115.5234"/><line style="stroke:#181818;stroke-width:1.0;" x1="0" x2="5" y1="134.8389" y2="134.8389"/><line style="stroke:#181818;stroke-width:1.0;" x1="59" x2="243" y1="134.8389" y2="134.8389"/><rect fill="#E2E2F0" height="14.6309" style="stroke:none;stroke-width:1.0;" width="8" x="22" y="154.1543"/><line style="stroke:#181818;stroke-width:1.0;" x1="22" x2="30" y1="154.1543" y2="154.1543"/><line style="stroke:#181818;stroke-width:1.0;" x1="22" x2="30" y1="168.7852" y2="168.7852"/><line style="stroke:#181818;stroke-width:1.0;" x1="22" x2="22" y1="154.1543" y2="168.7852"/><line style="stroke:#181818;stroke-width:1.0;" x1="30" x2="30" y1="154.1543" y2="168.7852"/><rect fill="#E2E2F0" height="14.6309" style="stroke:none;stroke-width:1.0;" width="8" x="34" y="172.7852"/><line style="stroke:#181818;stroke-width:1.0;" x1="34" x2="42" y1="172.7852" y2="172.7852"/><line style="stroke:#181818;stroke-width:1.0;" x1="34" x2="42" y1="187.416" y2="187.416"/><line style="stroke:#181818;stroke-width:1.0;" x1="34" x2="34" y1="172.7852" y2="187.416"/><line style="stroke:#181818;stroke-width:1.0;" x1="42" x2="42" y1="172.7852" y2="187.416"/><rect fill="#E2E2F0" height="14.6309" style="stroke:none;stroke-width:1.0;" width="8" x="46" y="191.416"/><line style="stroke:#181818;stroke-width:1.0;" x1="46" x2="54" y1="191.416" y2="191.416"/><line style="stroke:#181818;stroke-width:1.0;" x1="46" x2="54" y1="206.0469" y2="206.0469"/><line style="stroke:#181818;stroke-width:1.0;" x1="46" x2="46" y1="191.416" y2="206.0469"/><line style="stroke:#181818;stroke-width:1.0;" x1="54" x2="54" y1="191.416" y2="206.0469"/><rect fill="#E2E2F0" height="14.6309" style="stroke:none;stroke-width:1.0;" width="1" x="58" y="210.0469"/><line style="stroke:#181818;stroke-width:1.0;" x1="58" x2="59" y1="210.0469" y2="210.0469"/><line style="stroke:#181818;stroke-width:1.0;" x1="58" x2="59" y1="224.6777" y2="224.6777"/><line style="stroke:#181818;stroke-width:1.0;" x1="58" x2="58" y1="210.0469" y2="224.6777"/><line style="stroke:#181818;stroke-width:1.0;" x1="59" x2="59" y1="210.0469" y2="224.6777"/><line style="stroke:#181818;stroke-width:1.0;" x1="0" x2="5" y1="243.9932" y2="243.9932"/><line style="stroke:#181818;stroke-width:1.0;" x1="59" x2="243" y1="243.9932" y2="243.9932"/><rect fill="#E2E2F0" height="14.6309" style="stroke:none;stroke-width:1.0;" width="8" x="62" y="263.3086"/><line style="stroke:#181818;stroke-width:1.0;" x1="62" x2="70" y1="263.3086" y2="263.3086"/><line style="stroke:#181818;stroke-width:1.0;" x1="62" x2="70" y1="277.9395" y2="277.9395"/><line style="stroke:#181818;stroke-width:1.0;" x1="62" x2="62" y1="263.3086" y2="277.9395"/><line style="stroke:#181818;stroke-width:1.0;" x1="70" x2="70" y1="263.3086" y2="277.9395"/><rect fill="#E2E2F0" height="14.6309" style="stroke:none;stroke-width:1.0;" width="8" x="74" y="281.9395"/><line style="stroke:#181818;stroke-width:1.0;" x1="74" x2="82" y1="281.9395" y2="281.9395"/><line style="stroke:#181818;stroke-width:1.0;" x1="74" x2="82" y1="296.5703" y2="296.5703"/><line style="stroke:#181818;stroke-width:1.0;" x1="74" x2="74" y1="281.9395" y2="296.5703"/><line style="stroke:#181818;stroke-width:1.0;" x1="82" x2="82" y1="281.9395" y2="296.5703"/><rect fill="#E2E2F0" height="14.6309" style="stroke:none;stroke-width:1.0;" width="8" x="86" y="300.5703"/><line style="stroke:#181818;stroke-width:1.0;" x1="86" x2="94" y1="300.5703" y2="300.5703"/><line style="stroke:#181818;stroke-width:1.0;" x1="86" x2="94" y1="315.2012" y2="315.2012"/><line style="stroke:#181818;stroke-width:1.0;" x1="86" x2="86" y1="300.5703" y2="315.2012"/><line style="stroke:#181818;stroke-width:1.0;" x1="94" x2="94" y1="300.5703" y2="315.2012"/><rect fill="#E2E2F0" height="14.6309" style="stroke:none;stroke-width:1.0;" width="8" x="98" y="319.2012"/><line style="stroke:#181818;stroke-width:1.0;" x1="98" x2="106" y1="319.2012" y2="319.2012"/><line style="stroke:#181818;stroke-width:1.0;" x1="98" x2="106" y1="333.832" y2="333.832"/><line style="stroke:#181818;stroke-width:1.0;" x1="98" x2="98" y1="319.2012" y2="333.832"/><line style="stroke:#181818;stroke-width:1.0;" x1="106" x2="106" y1="319.2012" y2="333.832"/><rect fill="#E2E2F0" height="14.6309" style="stroke:none;stroke-width:1.0;" width="4" x="110" y="337.832"/><line style="stroke:#181818;stroke-width:1.0;" x1="110" x2="114" y1="337.832" y2="337.832"/><line style="stroke:#181818;stroke-width:1.0;" x1="110" x2="114" y1="352.4629" y2="352.4629"/><line style="stroke:#181818;stroke-width:1.0;" x1="110" x2="110" y1="337.832" y2="352.4629"/><line style="stroke:#181818;stroke-width:1.0;" x1="114" x2="114" y1="337.832" y2="352.4629"/><rect fill="#E2E2F0" height="14.6309" style="stroke:none;stroke-width:1.0;" width="4" x="118" y="356.4629"/><line style="stroke:#181818;stroke-width:1.0;" x1="118" x2="122" y1="356.4629" y2="356.4629"/><line style="stroke:#181818;stroke-width:1.0;" x1="118" x2="122" y1="371.0938" y2="371.0938"/><line style="stroke:#181818;stroke-width:1.0;" x1="118" x2="118" y1="356.4629" y2="371.0938"/><line style="stroke:#181818;stroke-width:1.0;" x1="122" x2="122" y1="356.4629" y2="371.0938"/><line style="stroke:#181818;stroke-width:1.0;" x1="0" x2="5" y1="390.4092" y2="390.4092"/><line style="stroke:#181818;stroke-width:1.0;" x1="59" x2="243" y1="390.4092" y2="390.4092"/><rect fill="#E2E2F0" height="14.6309" style="stroke:none;stroke-width:1.0;" width="4" x="126" y="409.7246"/><line style="stroke:#181818;stroke-width:1.0;" x1="126" x2="130" y1="409.7246" y2="409.7246"/><line style="stroke:#181818;stroke-width:1.0;" x1="126" x2="130" y1="424.3555" y2="424.3555"/><line style="stroke:#181818;stroke-width:1.0;" x1="126" x2="126" y1="409.7246" y2="424.3555"/><line style="stroke:#181818;stroke-width:1.0;" x1="130" x2="130" y1="409.7246" y2="424.3555"/><rect fill="#E2E2F0" height="14.6309" style="stroke:none;stroke-width:1.0;" width="8" x="134" y="428.3555"/><line style="stroke:#181818;stroke-width:1.0;" x1="134" x2="142" y1="428.3555" y2="428.3555"/><line style="stroke:#181818;stroke-width:1.0;" x1="134" x2="142" y1="442.9863" y2="442.9863"/><line style="stroke:#181818;stroke-width:1.0;" x1="134" x2="134" y1="428.3555" y2="442.9863"/><line style="stroke:#181818;stroke-width:1.0;" x1="142" x2="142" y1="428.3555" y2="442.9863"/><rect fill="#E2E2F0" height="14.6309" style="stroke:none;stroke-width:1.0;" width="12" x="146" y="446.9863"/><line style="stroke:#181818;stroke-width:1.0;" x1="146" x2="158" y1="446.9863" y2="446.9863"/><line style="stroke:#181818;stroke-width:1.0;" x1="146" x2="158" y1="461.6172" y2="461.6172"/><line style="stroke:#181818;stroke-width:1.0;" x1="146" x2="146" y1="446.9863" y2="461.6172"/><line style="stroke:#181818;stroke-width:1.0;" x1="158" x2="158" y1="446.9863" y2="461.6172"/><rect fill="#E2E2F0" height="14.6309" style="stroke:none;stroke-width:1.0;" width="12" x="162" y="465.6172"/><line style="stroke:#181818;stroke-width:1.0;" x1="162" x2="174" y1="465.6172" y2="465.6172"/><line style="stroke:#181818;stroke-width:1.0;" x1="162" x2="174" y1="480.248" y2="480.248"/><line style="stroke:#181818;stroke-width:1.0;" x1="162" x2="162" y1="465.6172" y2="480.248"/><line style="stroke:#181818;stroke-width:1.0;" x1="174" x2="174" y1="465.6172" y2="480.248"/><rect fill="#E2E2F0" height="14.6309" style="stroke:none;stroke-width:1.0;" width="12" x="178" y="484.248"/><line style="stroke:#181818;stroke-width:1.0;" x1="178" x2="190" y1="484.248" y2="484.248"/><line style="stroke:#181818;stroke-width:1.0;" x1="178" x2="190" y1="498.8789" y2="498.8789"/><line style="stroke:#181818;stroke-width:1.0;" x1="178" x2="178" y1="484.248" y2="498.8789"/><line style="stroke:#181818;stroke-width:1.0;" x1="190" x2="190" y1="484.248" y2="498.8789"/><rect fill="#E2E2F0" height="14.6309" style="stroke:none;stroke-width:1.0;" width="4" x="194" y="502.8789"/><line style="stroke:#181818;stroke-width:1.0;" x1="194" x2="198" y1="502.8789" y2="502.8789"/><line style="stroke:#181818;stroke-width:1.0;" x1="194" x2="198" y1="517.5098" y2="517.5098"/><line style="stroke:#181818;stroke-width:1.0;" x1="194" x2="194" y1="502.8789" y2="517.5098"/><line style="stroke:#181818;stroke-width:1.0;" x1="198" x2="198" y1="502.8789" y2="517.5098"/><rect fill="#E2E2F0" height="14.6309" style="stroke:none;stroke-width:1.0;" width="1" x="202" y="521.5098"/><line style="stroke:#181818;stroke-width:1.0;" x1="202" x2="203" y1="521.5098" y2="521.5098"/><line style="stroke:#181818;stroke-width:1.0;" x1="202" x2="203" y1="536.1406" y2="536.1406"/><line style="stroke:#181818;stroke-width:1.0;" x1="202" x2="202" y1="521.5098" y2="536.1406"/><line style="stroke:#181818;stroke-width:1.0;" x1="203" x2="203" y1="521.5098" y2="536.1406"/><line style="stroke:#181818;stroke-width:1.0;" x1="0" x2="5" y1="555.4561" y2="555.4561"/><line style="stroke:#181818;stroke-width:1.0;" x1="59" x2="243" y1="555.4561" y2="555.4561"/><rect fill="#E2E2F0" height="14.6309" style="stroke:none;stroke-width:1.0;" width="4" x="206" y="574.7715"/><line style="stroke:#181818;stroke-width:1.0;" x1="206" x2="210" y1="574.7715" y2="574.7715"/><line style="stroke:#181818;stroke-width:1.0;" x1="206" x2="210" y1="589.4023" y2="589.4023"/><line style="stroke:#181818;stroke-width:1.0;" x1="206" x2="206" y1="574.7715" y2="589.4023"/><line style="stroke:#181818;stroke-width:1.0;" x1="210" x2="210" y1="574.7715" y2="589.4023"/><rect fill="#E2E2F0" height="14.6309" style="stroke:none;stroke-width:1.0;" width="8" x="214" y="593.4023"/><line style="stroke:#181818;stroke-width:1.0;" x1="214" x2="222" y1="593.4023" y2="593.4023"/><line style="stroke:#181818;stroke-width:1.0;" x1="214" x2="222" y1="608.0332" y2="608.0332"/><line style="stroke:#181818;stroke-width:1.0;" x1="214" x2="214" y1="593.4023" y2="608.0332"/><line style="stroke:#181818;stroke-width:1.0;" x1="222" x2="222" y1="593.4023" y2="608.0332"/><rect fill="#E2E2F0" height="14.6309" style="stroke:none;stroke-width:1.0;" width="4" x="226" y="612.0332"/><line style="stroke:#181818;stroke-width:1.0;" x1="226" x2="230" y1="612.0332" y2="612.0332"/><line style="stroke:#181818;stroke-width:1.0;" x1="226" x2="230" y1="626.6641" y2="626.6641"/><line style="stroke:#181818;stroke-width:1.0;" x1="226" x2="226" y1="612.0332" y2="626.6641"/><line style="stroke:#181818;stroke-width:1.0;" x1="230" x2="230" y1="612.0332" y2="626.6641"/><rect fill="#E2E2F0" height="14.6309" style="stroke:none;stroke-width:1.0;" width="1" x="234" y="630.6641"/><line style="stroke:#181818;stroke-width:1.0;" x1="234" x2="235" y1="630.6641" y2="630.6641"/><line style="stroke:#181818;stroke-width:1.0;" x1="234" x2="235" y1="645.2949" y2="645.2949"/><line style="stroke:#181818;stroke-width:1.0;" x1="234" x2="234" y1="630.6641" y2="645.2949"/><line style="stroke:#181818;stroke-width:1.0;" x1="235" x2="235" y1="630.6641" y2="645.2949"/><rect fill="#E2E2F0" height="14.6309" style="stroke:none;stroke-width:1.0;" width="1" x="238" y="649.2949"/><line style="stroke:#181818;stroke-width:1.0;" x1="238" x2="239" y1="649.2949" y2="649.2949"/><line style="stroke:#181818;stroke-width:1.0;" x1="238" x2="239" y1="663.9258" y2="663.9258"/><line style="stroke:#181818;stroke-width:1.0;" x1="238" x2="238" y1="649.2949" y2="663.9258"/><line style="stroke:#181818;stroke-width:1.0;" x1="239" x2="239" y1="649.2949" y2="663.9258"/><rect fill="#E2E2F0" height="14.6309" style="stroke:none;stroke-width:1.0;" width="1" x="242" y="667.9258"/><line style="stroke:#181818;stroke-width:1.0;" x1="242" x2="243" y1="667.9258" y2="667.9258"/><line style="stroke:#181818;stroke-width:1.0;" x1="242" x2="243" y1="682.5566" y2="682.5566"/><line style="stroke:#181818;stroke-width:1.0;" x1="242" x2="242" y1="667.9258" y2="682.5566"/><line style="stroke:#181818;stroke-width:1.0;" x1="243" x2="243" y1="667.9258" y2="682.5566"/><text fill="#000000" font-family="sans-serif" font-size="11" lengthAdjust="spacing" textLength="44" x="10" y="48.8701">&#39033;&#30446;&#21551;&#21160;</text><text fill="#000000" font-family="sans-serif" font-size="11" lengthAdjust="spacing" textLength="66" x="10" y="75.501">&#32452;&#24314;&#39033;&#30446;&#22242;&#38431;</text><text fill="#000000" font-family="sans-serif" font-size="11" lengthAdjust="spacing" textLength="66" x="18" y="94.1318">&#21046;&#23450;&#39033;&#30446;&#35745;&#21010;</text><text fill="#000000" font-family="sans-serif" font-size="11" lengthAdjust="spacing" textLength="44" x="22" y="112.7627">&#21551;&#21160;&#20250;&#35758;</text><text fill="#000000" font-family="sans-serif" font-size="11" lengthAdjust="spacing" textLength="44" x="10" y="139.3936">&#38656;&#27714;&#20998;&#26512;</text><text fill="#000000" font-family="sans-serif" font-size="11" lengthAdjust="spacing" textLength="44" x="34" y="166.0244">&#38656;&#27714;&#35843;&#30740;</text><text fill="#000000" font-family="sans-serif" font-size="11" lengthAdjust="spacing" textLength="44" x="46" y="184.6553">&#38656;&#27714;&#20998;&#26512;</text><text fill="#000000" font-family="sans-serif" font-size="11" lengthAdjust="spacing" textLength="99" x="58" y="203.2861">&#32534;&#20889;&#38656;&#27714;&#35268;&#26684;&#35828;&#26126;&#20070;</text><text fill="#000000" font-family="sans-serif" font-size="11" lengthAdjust="spacing" textLength="44" x="62" y="221.917">&#38656;&#27714;&#35780;&#23457;</text><text fill="#000000" font-family="sans-serif" font-size="11" lengthAdjust="spacing" textLength="44" x="10" y="248.5479">&#31995;&#32479;&#35774;&#35745;</text><text fill="#000000" font-family="sans-serif" font-size="11" lengthAdjust="spacing" textLength="66" x="74" y="275.1787">&#31995;&#32479;&#26550;&#26500;&#35774;&#35745;</text><text fill="#000000" font-family="sans-serif" font-size="11" lengthAdjust="spacing" textLength="55" x="86" y="293.8096">&#25968;&#25454;&#24211;&#35774;&#35745;</text><text fill="#000000" font-family="sans-serif" font-size="11" lengthAdjust="spacing" textLength="44" x="98" y="312.4404">&#30028;&#38754;&#35774;&#35745;</text><text fill="#000000" font-family="sans-serif" font-size="11" lengthAdjust="spacing" textLength="66" x="110" y="331.0713">&#21151;&#33021;&#27169;&#22359;&#35774;&#35745;</text><text fill="#000000" font-family="sans-serif" font-size="11" lengthAdjust="spacing" textLength="44" x="118" y="349.7021">&#25509;&#21475;&#35774;&#35745;</text><text fill="#000000" font-family="sans-serif" font-size="11" lengthAdjust="spacing" textLength="44" x="126" y="368.333">&#35774;&#35745;&#35780;&#23457;</text><text fill="#000000" font-family="sans-serif" font-size="11" lengthAdjust="spacing" textLength="44" x="10" y="394.9639">&#31995;&#32479;&#24320;&#21457;</text><text fill="#000000" font-family="sans-serif" font-size="11" lengthAdjust="spacing" textLength="66" x="134" y="421.5947">&#25645;&#24314;&#24320;&#21457;&#29615;&#22659;</text><text fill="#000000" font-family="sans-serif" font-size="11" lengthAdjust="spacing" textLength="55" x="146" y="440.2256">&#25968;&#25454;&#24211;&#23454;&#29616;</text><text fill="#000000" font-family="sans-serif" font-size="11" lengthAdjust="spacing" textLength="88" x="162" y="458.8564">&#20225;&#19994;&#29992;&#25143;&#27169;&#22359;&#24320;&#21457;</text><text fill="#000000" font-family="sans-serif" font-size="11" lengthAdjust="spacing" textLength="88" x="178" y="477.4873">&#30465;&#32423;&#29992;&#25143;&#27169;&#22359;&#24320;&#21457;</text><text fill="#000000" font-family="sans-serif" font-size="11" lengthAdjust="spacing" textLength="88" x="194" y="496.1182">&#24066;&#32423;&#29992;&#25143;&#27169;&#22359;&#24320;&#21457;</text><text fill="#000000" font-family="sans-serif" font-size="11" lengthAdjust="spacing" textLength="66" x="202" y="514.749">&#31995;&#32479;&#25509;&#21475;&#24320;&#21457;</text><text fill="#000000" font-family="sans-serif" font-size="11" lengthAdjust="spacing" textLength="44" x="206" y="533.3799">&#20195;&#30721;&#35780;&#23457;</text><text fill="#000000" font-family="sans-serif" font-size="11" lengthAdjust="spacing" textLength="44" x="10" y="560.0107">&#31995;&#32479;&#27979;&#35797;</text><text fill="#000000" font-family="sans-serif" font-size="11" lengthAdjust="spacing" textLength="66" x="214" y="586.6416">&#21046;&#23450;&#27979;&#35797;&#35745;&#21010;</text><text fill="#000000" font-family="sans-serif" font-size="11" lengthAdjust="spacing" textLength="66" x="226" y="605.2725">&#35774;&#35745;&#27979;&#35797;&#29992;&#20363;</text><text fill="#000000" font-family="sans-serif" font-size="11" lengthAdjust="spacing" textLength="66" x="234" y="623.9033">&#25645;&#24314;&#27979;&#35797;&#29615;&#22659;</text><text fill="#000000" font-family="sans-serif" font-size="11" lengthAdjust="spacing" textLength="44" x="238" y="642.5342">&#21151;&#33021;&#27979;&#35797;</text><text fill="#000000" font-family="sans-serif" font-size="11" lengthAdjust="spacing" textLength="44" x="242" y="661.165">&#24615;&#33021;&#27979;&#35797;</text><text fill="#000000" font-family="sans-serif" font-size="11" lengthAdjust="spacing" textLength="44" x="246" y="679.7959">&#23433;&#20840;&#27979;&#35797;</text><line style="stroke:#C0C0C0;stroke-width:1.0;" x1="0" x2="244" y1="684.5566" y2="684.5566"/><line style="stroke:#C0C0C0;stroke-width:1.0;" x1="0" x2="0" y1="684.5566" y2="700.5566"/><line style="stroke:#C0C0C0;stroke-width:1.0;" x1="124" x2="124" y1="684.5566" y2="700.5566"/><text fill="#000000" font-family="sans-serif" font-size="12" font-weight="bold" lengthAdjust="spacing" textLength="51.3691" x="36.3154" y="697.5059">Mar 2025</text><line style="stroke:#C0C0C0;stroke-width:1.0;" x1="244" x2="244" y1="684.5566" y2="700.5566"/><text fill="#000000" font-family="sans-serif" font-size="12" font-weight="bold" lengthAdjust="spacing" textLength="50.6953" x="158.6523" y="697.5059">Apr 2025</text><line style="stroke:#C0C0C0;stroke-width:1.0;" x1="0" x2="244" y1="700.5566" y2="700.5566"/><!--SRC=[VPPRKzD068RlzrVifLo4QVRGGYySHz5H56KKkUbm4Md4QacP9iN1Aquw25hmW28W9qVXnXJ7Cwt-ccvI_eNfBWl9xE9Lvzt9-tpVVkzkqdEkPvMz4SlnF31MBjstXprts2hQyA5jFoXEW7wn1lbZBaGfH8qKDb8c08O13xT_Xsi-Mwgn-Jre620NrcTP_U1eUMtdS6Lp25ekp9cTvf3AW9QJXqNBRI_2l3NXWXoR-y7yLG5e-TjixgK481M0TG3UJBEnsl9zQSMgbSQiPjigzhC-6NoPPdDFWeqblX-nqDgV2RTU2nhIxIGTe-6ZHk8iQTNieLjZ3Hjls9DtHxLtPuEjHglsBLYfDdz_aYHrIoOwjObMRPRvsz9ALAj-6k7NUbZVRFb_eo14kdmXsFWHRCoAPS74cfcOkfa4o_l1SvyTl4gwrR6Osh4iFpjylvEqgdD0kZcm-StMp9zWRvkzVvi4gDD0LDTvzIDR_92qKjNQfJcHmXJF07Uc5IjEgTQJ45XZaYs-u244Iv-ZAoOMmcgDxSm8A5528FehTXm2ypV2whvq8zMDDODeDgQQlrR3rtl1t4ynJz6An60L4py9H6QvFXKUx9wE8Gh6J6amxDVqVp5KnH1TD-9WyuoJWBGAq6NSh7y8jwRY6PFEZ695gV_Si-3xGgksp2CMBq6n47y9Kat4o3pro0b0D9pctmK9K5D6kfJ58Ji2n0uPrUIBqhhNiBXm722jQgQ9-o86aWicTnMd6YFgLftCVyeUxoMTQdvO4uBuFXbdnNS6YA-Da9XBB6JxvG_49q18n2MI4dDv_33XaWY9kHTBB-RUcCH9IPAISecaJ7E9av8a9KtAj924jq4acV0sY2GJtWQHPCBR899CU1j4aWadanDoXikCa9GNeh8GvOMeB4Hv8IeBKLw8oaAK5wAoK3j60CxPJbxyKG7znUZtTjyrE6wNtKB9WL5WAHILFdFByk0jUmocCj3ipffTMJC3BryTQATFEi2PlYi3q2rLoiCsp1TShrouK_4YVmVejSOjUBFYU8LHEmjlZDbERyzLkG0lEkE5SiaPjHqFz0xsdJoG9iRvGhjYEUe43lQ17lkkLIbwaMEub2yu8rbuU-2IqGMkMSv8nHg9s8_kWGkbY5kUoC8Br_y1]--></g></svg>